<?xml version="1.0" encoding="UTF-8" standalone="no"?>
<svg width="520px" height="794px" viewBox="0 0 520 794" version="1.1" xmlns="http://www.w3.org/2000/svg" xmlns:xlink="http://www.w3.org/1999/xlink" xmlns:sketch="http://www.bohemiancoding.com/sketch/ns">
    <title>gantleBungLater</title>
    <description>Created with Sketch (http://www.bohemiancoding.com/sketch)</description>
    <defs></defs>
    <g id="Page-1" stroke="none" stroke-width="1" fill="none" fill-rule="evenodd" sketch:type="MSPage">
        <path d="M296,112.253931 L296,165 L507.001946,165 C511.418709,165 515,168.577594 515,172.99078 L515,232.00922 C515,236.420465 511.419149,240 507.001946,240 L348.859262,240 L348.859262,240 L363.225002,519.180406 C363.3989,522.559903 362.153029,525.593858 360.156496,527.294447 C362.249428,527.771947 364.145756,529.085161 365.303416,531.090286 L487.308744,742.409714 C489.517831,746.235966 488.205538,751.123401 484.380826,753.331599 L424.619174,787.835006 C420.79822,790.041034 415.904252,788.733506 413.696584,784.909714 L291.691256,573.590286 C289.482169,569.764034 290.794462,564.876599 294.619174,562.668401 L353.055945,528.929915 L237.580845,535.546277 L284.880826,562.854934 C288.70178,565.060963 290.014994,569.955483 287.805577,573.782305 L186.806582,748.717695 C184.595817,752.546852 179.705538,753.856671 175.880826,751.648472 L116.119174,717.145066 C112.29822,714.939037 110.985006,710.044517 113.194423,706.217695 L214.193418,531.282305 C214.519934,530.716762 214.9049,530.206174 215.33625,529.753759 C215.112009,529.017004 214.950433,528.240586 214.861954,527.436108 L183.248755,240 L12.9980541,240 C8.58129107,240 5,236.422406 5,232.00922 L5,172.99078 C5,168.579535 8.58085081,165 12.9980541,165 L225,165 L225,165 L225,112.253931 C210.434388,101.40825 201,84.0558855 201,64.5 C201,31.6390558 227.639056,5 260.5,5 C293.360944,5 320,31.6390558 320,64.5 C320,84.0558855 310.565612,101.40825 296,112.253931 Z" id="Path" stroke="#FFFFFF" stroke-width="10" sketch:type="MSShapeGroup"></path>
    </g>
</svg>