<?xml version="1.0" encoding="UTF-8" standalone="no"?>
<svg width="520px" height="573px" viewBox="0 0 520 573" version="1.1" xmlns="http://www.w3.org/2000/svg" xmlns:xlink="http://www.w3.org/1999/xlink" xmlns:sketch="http://www.bohemiancoding.com/sketch/ns">
    <title>gentlebrawn</title>
    <description>Created with Sketch (http://www.bohemiancoding.com/sketch)</description>
    <defs></defs>
    <g id="Page-1" stroke="none" stroke-width="1" fill="none" fill-rule="evenodd" sketch:type="MSPage">
        <path d="M344.898994,368.279535 C344.965465,367.864098 345,367.437871 345,367.003428 L345,199 L507.001946,199 C511.419149,199 515,195.420465 515,191.00922 L515,131.99078 C515,127.577594 511.418709,124 507.001946,124 L12.9980541,124 C8.58085081,124 5,127.579535 5,131.99078 L5,191.00922 C5,195.422406 8.58129107,199 12.9980541,199 L175,199 L175,367.003428 C175,367.616598 175.069201,368.213648 175.200189,368.787236 L175.200189,368.787236 L87.1944229,521.217695 C84.9850063,525.044517 86.2982202,529.939037 90.1191736,532.145066 L149.880826,566.648472 C153.705538,568.856671 158.595817,567.546852 160.806582,563.717695 L260.196152,391.56991 L359.696584,563.909714 C361.904252,567.733506 366.79822,569.041034 370.619174,566.835006 L430.380826,532.331599 C434.205538,530.123401 435.517831,525.235966 433.308744,521.409714 L344.898994,368.279535 Z M260.5,124 C293.360944,124 320,97.3609442 320,64.5 C320,31.6390558 293.360944,5 260.5,5 C227.639056,5 201,31.6390558 201,64.5 C201,97.3609442 227.639056,124 260.5,124 Z" id="Oval-1" stroke="#FFFFFF" stroke-width="10" sketch:type="MSShapeGroup"></path>
    </g>
</svg>